<?xml version="1.0" encoding="UTF-8"?>
<svg xmlns="http://www.w3.org/2000/svg" viewBox="0 0 772.21 900.89">
  <defs>
    <style>
      .cls-1 {
        isolation: isolate;
      }
    </style>
  </defs>
  <g id="vecto_petit" data-name="vecto petit" class="cls-1">
    <g id="vecto_petit-2" data-name="vecto petit">
      <path d="M432.44,562.37c1.67-4.96,3.35-9.92,4.91-14.91,.69-2.22,1.03-4.55,1.63-6.8,.34-1.27,.81-2.53,1.4-3.7,.83-1.63,2.56-3.16,2.6-4.76,.06-2.45,.99-4.07,2.51-5.69,.72-.76,1.29-1.69,1.8-2.62,2.62-4.7,3.47-9.91,4.26-15.14,.25-1.64,.2-3.65,1.15-4.77,1.47-1.75,.95-3.4,.87-5.19-.08-1.71,.01-3.42-.04-5.12-.05-1.66-.18-3.32-.3-4.98-.2-2.8-1.19-5.84-.43-8.35,1.18-3.87-.1-7.35-.54-10.9-.54-4.41-2.69-28.98-1.1-36.15,.51-2.32,.43-4.97-.12-7.29-.65-2.71-1.85-5.27-1.67-8.17,.04-.58-.37-1.28-.75-1.78-4.75-6.2-11.96-7.46-18.86-9.42-2.63-.75-5.71-.07-7.86-2.48-1.07-1.2-2.16-.28-2.65,.62-1.22,2.25-2.29,4.6-3.23,6.99-.5,1.26-.33,2.81-.94,3.98-1.44,2.72-2.98,5.43-4.83,7.88-3.01,3.99-4.91,8.84-9.04,11.98-3.63,2.75-6.76,6.25-11.4,7.48-2.44,.65-4.83,1.49-7.29,2.05-4.74,1.07-8.94,3.69-14.01,4.06-4.8,.35-9.54,1.25-14.16-.53-5.22-2.01-10.33-4.31-15.47-6.54-.47-.21-.75-.85-1.12-1.29-1-1.2-1.77-2.85-3.06-3.52-4.84-2.53-6.98-7.25-9.4-11.56-1.92-3.41-2.7-7.47-4.01-11.23-.89-2.56-2.09-5.05-2.65-7.68-.83-3.87-2.35-5.65-6.21-5.31-3.75,.33-7.42,1.42-11.16,1.92-4.88,.66-7.92,3.5-9.71,7.8-2.31,5.55-4.68,11.09-6.58,16.79-1.28,3.83-1.83,7.91-2.63,11.89-.49,2.44-.85,4.9-1.23,7.36-.13,.89-.18,1.8-.16,2.7,.03,.97,.27,1.94,.28,2.92,.04,4.91-.03,9.82,.09,14.73,.06,2.41,.56,4.8,.71,7.2,.16,2.55,.04,5.11,.2,7.66,.31,4.89,.63,9.79,1.15,14.67,.2,1.89,.98,3.71,1.44,5.58,.27,1.11,.85,2.34,.59,3.34-.75,2.85,.02,5.29,1.28,7.76,.48,.93,.68,2.02,.9,3.06,.41,1.99,.61,4.02,1.13,5.97,.42,1.6,1.19,3.1,1.8,4.65,2.19,5.58,4.3,11.19,6.6,16.72,.73,1.76,2.11,3.24,2.94,4.96,.53,1.1,.43,2.49,.94,3.61,.83,1.83,2,3.5,2.9,5.31,3.09,6.18,6.02,12.44,9.21,18.56,2.11,4.05,4.56,7.93,6.87,11.88,.73,1.25,1.29,2.68,2.27,3.71,5.51,5.86,12.27,9.98,19.52,13.29,1.82,.83,3.86,1.23,5.83,1.68,2.53,.57,5.21,.65,7.61,1.55,3.8,1.42,7.02-.46,10.45-1.18,.46-.1,.82-.71,1.47-1.3-1.74-1.41-3.43-2.01-5.45-2.2-5.95-.58-11.76-1.72-16.99-4.86-.82-.49-1.51-1.2-2.26-1.81,.12-.18,.24-.36,.36-.55,.55,.09,1.16,.36,1.65,.22,1.14-.33,2.23-.86,3.33-1.3-.66-.99-1.13-2.23-2.02-2.92-1.68-1.3-3.57-2.37-5.45-3.39-2.67-1.45-4.54-3.58-5.86-6.28-.52-1.05-1.19-2.04-1.86-3-2.83-4.03-5.69-8.04-8.52-12.07-.22-.32-.4-.67-.56-1.03-.86-1.96-1.76-3.9-2.53-5.89-1.67-4.33-3.56-8.6-4.83-13.05-1.27-4.46-1.91-9.1-2.8-13.66-.7-3.61-1.97-7.15-1.36-10.95,.13-.8-.26-1.7-.44-2.54-.49-2.25-1.18-4.46-1.45-6.73-.45-3.81-.64-7.65-.94-11.48,0-.1-.07-.19-.08-.28-.8-7.36-1.79-14.71-2.35-22.08-.57-7.58-.71-15.19-1.04-22.79-.19-4.37,.96-8.31,3.71-11.71,5.54,1.8,5.95,2.12,5.48,7.67-.23,2.77-1.39,5.46-2.05,8.2-.21,.88-.46,1.89-.23,2.71,1.03,3.71,2.29,7.35,3.34,11.05,.99,3.47,3.13,5.82,6.37,7.29,1.34,.61,2.6,1.41,3.96,1.98,5.92,2.47,11.86,5.07,18.51,3.16,2.83-.81,5.53-2.04,8.36-2.85,1.54-.44,3.23-.34,4.83-.58,1.83-.27,2.46,1.17,2.79,2.32,.21,.73-.47,2.02-1.13,2.64-1.71,1.58-3.52,3.09-5.49,4.32-4.53,2.84-9.72,3.56-14.9,4.17-2.24,.26-4.51,.31-6.76,.34-1.49,.02-3.12-.99-4.27,.83-.88,1.4-2.27,2.64-2.66,4.14-.68,2.7-1.18,5.58-1.02,8.34,.21,3.58-.63,6.74-2.3,9.76-1.22,2.18-2.26,4.7-4.07,6.26-2.56,2.2-2.77,2.76-1.85,5.97,1.9,6.59,6.43,11.96,8.19,18.58,.13,.5,.8,.83,1.12,1.31,.36,.53,.81,1.12,.85,1.71,.14,1.86,.91,3.01,2.89,2.96,2.07-.05,3.09-1.14,3.38-3.33,.37-2.8,.8-5.6,1.18-8.26,1.08-.39,2.07-.49,2.67-1.03,1.15-1.03,2.05-2.33,3.1-3.48,3.54-3.87,8.05-6.45,12.4-9.23,3.29-2.1,6.76-3.67,10.66-4.49,6.63-1.41,13.17-.21,19.71,.22,2.52,.17,4.99,1.56,7.42,2.54,.66,.26,1.17,.99,1.64,1.58,1.4,1.74,2.5,3.84,4.19,5.23,2.89,2.39,6.22,4.13,8.21,7.63,1.15,2.02,3.23,3.51,4.94,5.19,1.86,1.82,5.4,.97,5.89-1.58,1.41-7.34,2.85-14.69,3.76-22.1,.3-2.42-1.11-5.03-1.54-7.58-.73-4.33-3.84-8.16-2.63-12.92,.16-.63-.43-1.47-.71-2.2-.28-.72-.86-1.42-.88-2.15-.06-2.63-1.53-3.33-3.86-3.27-6.89,.17-13.46-1.02-19.67-4.21-4-2.05-7.2-4.74-8.83-9-.53-1.4-.82-2.94,.67-4.04,1.47-1.08,2.89-.5,4.02,.55,3.09,2.87,6.84,4.28,10.9,4.78,6.98,.86,13.81,1.47,18.96-5.18,4.07-5.26,6.08-10.83,4.88-17.43-.31-1.72-.48-3.47-.87-5.17-.32-1.39-.74-2.81-1.39-4.07-1.03-1.98-2.2-3.86-1.59-6.38,2.38-.16,4.67-.32,6.78-.46,2.59,4.31,.68,15.01,.61,16.17-.23,3.72,.42,7.43,1.81,10.7,2.5,5.85,3.64,21.29,4.28,22.77,1.87,4.32,.94,8.27-1.11,12.22-.49,.95,.05,7.35-.28,9.28-.43,2.55-1.54,4.98-2.31,7.48-.34,1.11-1.33,10.36-1.67,13.84-.06,.64-.56,1.23-.84,1.85-.36,.8-.84,1.58-1.02,2.42-.82,3.71-1.47,7.46-2.36,11.15-.36,1.48-.82,3.27-1.86,4.21-3.36,3.01-4.05,7.2-5.31,11.09-1.69,5.23-3.44,10.39-7.6,14.2-2.48,2.28-5.27,4.23-7.92,6.33-1.08,.85-2.23,1.62-3.2,2.58-.4,.4-.72,1.36-.51,1.79,.28,.57,1.06,1.14,1.71,1.24,.82,.13,1.74-.1,2.56-.36,2.54-.81,5.05-1.7,8.14-2.76-3.09,5.11-7.7,6.41-12.44,7.37-2.29,.46-4.65,.58-6.94,1.02-.74,.14-1.37,.83-2.05,1.27,.51,.64,.89,1.49,1.55,1.89,3.11,1.89,6.67,1,10.02,1.32,1.85,.18,3.78-.64,5.69-.91,4.19-.59,7.41-2.69,10.66-5.43,3.78-3.19,7.38-6.41,10.15-10.49,1.3-1.91,3.06-3.81,3.47-5.94,.49-2.57,1.6-4.75,2.56-7.07,.44-1.07,1.07-2.42,.77-3.38-1.11-3.52,.04-6.39,1.9-9.22,.53-.81,.95-1.73,1.26-2.65Zm-296.54,160.44c-3.05-2.57-6.78-4.41-8.46-8.37-.11-.26-.32-.52-.55-.68-3.25-2.25-6.51-4.48-9.78-6.7-.56-.38-1.21-.64-1.75-1.04-4.85-3.62-9.68-7.26-14.51-10.91-.38-.29-.66-.72-1-1.08-2.25-2.42-4.5-4.84-6.75-7.25-3.12-3.34-6.15-6.77-9.4-9.97-3.57-3.5-5.58-7.99-8.12-12.14-1.2-1.96-1.9-4.21-2.98-6.25-1.54-2.91-3.27-5.7-4-9.01-.45-2.03-1.92-3.84-2.27-5.87-.87-4.97-1.35-10.01-2.01-15.01-.06-.48-.3-.94-.4-1.42-.69-3.48-1.37-6.97-2.14-10.85,2.51,.86,4.09,1.77,5.34,3.64,1.12,1.69,2.99,2.88,4.51,4.26,1.83-1.26,2.3-2.26,1.08-3.71-1.13-1.34-2.08-2.84-3.25-4.13-1.94-2.14-4.04-4.14-5.99-6.27-.43-.47-.65-1.22-.76-1.88-.33-2.06-.74-4.14-.79-6.21-.1-4.12-.03-8.25,.08-12.38,.05-1.93,.44-3.86,.53-5.79,.25-5.21,.45-10.42,.63-15.63,.06-1.68-.32-3.43,.03-5.03,.64-2.93,.18-5.62-.83-8.35-.28-.76-.06-1.7-.11-2.56-.16-3.21-.15-6.44-.56-9.62-.32-2.46-1.66-4.84-1.71-7.28-.13-6.47-1.89-12.58-3.43-18.75-.26-1.03-.85-2.07-.8-3.08,.27-6.12-3.4-10.93-5.33-16.3-.87-2.42-2.51-4.56-3.62-6.91-.74-1.56-1.68-3.3-1.62-4.92,.25-6.31,.73-12.62,1.41-18.91,.2-1.87,.67-3.57-.27-5.38-.42-.81-.54-1.86-.52-2.79,.08-4.16,.22-8.31,.43-12.46,.08-1.64,.39-3.28,.57-4.92,.06-.57,.25-1.19,.09-1.71-1.33-4.42-1.64-8.96-1.72-13.53-.01-.7,.18-1.41,.28-2.11,.3-.05,.6-.11,.9-.16,1.5,4.52,2.81,9.11,4.54,13.54,1.71,4.38,3.66,8.69,5.85,12.86,2.25,4.28,4.92,8.34,7.41,12.49,2.46,4.09,5.23,8.04,7.28,12.32,2.07,4.32,5.12,7.78,8.16,11.4-1.25-4.2-2.88-8.19-4.63-12.14-1.06-2.39-2.48-4.62-3.43-7.04-1.66-4.23-2.98-8.59-4.62-12.83-1.67-4.3-3.67-8.48-5.34-12.78-2.24-5.77-4.36-11.58-6.41-17.41-1.81-5.16-3.49-10.36-5.16-15.57-1.31-4.07-1.88-8.3-4.46-12.03-1.93-2.79-2.68-6.38-4.11-9.55-2.33-5.12-4.96-10.11-7.13-15.3-1.11-2.67-2.77-5.44-.83-8.62,1.04-1.7,1.6-3.7,2.23-5.62,1.02-3.11,1.64-6.38,2.91-9.37,2.63-6.18,5.73-12.15,8.22-18.4,.86-2.15,1.69-4.31,2.65-6.41,1.24-2.73,2.53-5.45,3.94-8.11,1.23-2.32,2.64-4.55,4-6.81,1.95-3.24,3.82-6.54,5.91-9.7,3.56-5.38,7.56-10.5,10.83-16.05,3.8-6.44,8.32-12.26,13-18.03,2.05-2.53,3.94-5.41,5.04-8.44,1.31-3.6,1.7-7.53,2.47-11.33,.37-1.82,.72-3.65,1.03-5.49,.66-3.8,1.31-7.59,1.93-11.39,.13-.77-.06-1.63,.21-2.33,1.04-2.71,1.82-5.42,2.03-8.39,.19-2.76,1.29-5.44,1.75-8.2,.18-1.08-.3-2.26-.48-3.4-.37-.08-.74-.17-1.11-.25-.91,.81-1.94,1.51-2.71,2.44-4.85,5.88-9.69,11.77-14.44,17.73-3.69,4.63-8.67,8.29-10.73,14.16-.09,.25-.44,.39-.63,.61-4.42,5.39-9.06,10.43-11.23,17.49-1.7,5.5-5.12,10.5-7.99,15.6-1.99,3.53-3.13,7.46-5.84,10.7-1.37,1.64-2.24,4.07-3.04,6.07-1.44,3.63-4.71,5.8-5.92,9.76-1.39,4.58-4.88,8.52-7.43,12.76-.35,.57-.54,1.25-.74,1.9-1.06,3.41-1.9,6.91-3.18,10.23-1.84,4.8-4.51,9.35-5.86,14.26-1.19,4.35-1.08,9.07-1.49,13.63-.11,1.17,.19,2.41-.1,3.52-1.05,4.01-3.16,7.62-3.27,12.02-.11,4.11-1.35,8.2-2.08,12.29-.12,.67-.04,1.39-.25,2.03-.94,2.92-2.02,5.8-2.89,8.74-.41,1.39-.78,2.92-.63,4.34,.41,4.08-1.57,8.08-.26,12.17,.18,.55-.31,1.31-.45,1.98-.13,.66-.4,1.37-.28,1.99,.99,5.37,2.04,10.72,1.98,16.22,0,.76,.32,1.53,.54,2.29,.83,2.88,1.71,5.74,2.51,8.62,.59,2.13,.99,4.31,1.64,6.41,.77,2.5,2.18,4.89,2.47,7.43,.56,4.93,2.94,8.97,5.5,12.93,1.5,2.3,3.33,4.3,3.58,7.24,.08,.97,.88,1.89,1.37,2.83,1.79,3.44,4.2,6.69,3.28,10.95-.33,1.5-.52,3.04-.96,4.51-1.19,3.97-.71,8.45-3.15,12-2.13,3.1-3.34,6.54-4.73,9.97-2.15,5.3-4.52,10.51-5.59,16.18-.36,1.9-.22,4.05-1.08,5.67-3.5,6.63-3.75,14.37-7.42,20.96-1.4,2.52-1.78,5.62-2.57,8.47-.46,1.68-.39,3.65-1.27,5.04-2.29,3.62-3.13,7.71-4.4,11.66-.4,1.23-.23,2.65-.31,3.98,.23,.03,.47,.06,.7,.08,10.01-15.84,18.77-32.26,23.25-50.72,.07,2.07-.37,4.06-.37,6.06,0,3.63,.35,7.26,.42,10.89,.07,3.17-.81,6.32,.11,9.51,.53,1.84,.81,3.77,1.06,5.67,1.03,7.82,3.13,15.25,7.74,21.81,1.12,1.6,1.71,3.63,3.01,5.03,3.18,3.41,6.74,6.47,9.94,9.87,2.38,2.52,4.4,5.3,4.93,8.96,.78,5.35,1.86,10.66,2.72,16,.2,1.26,.06,2.58,.12,3.86,.04,.87,.04,1.76,.23,2.61,.36,1.61,.91,3.17,1.28,4.78,.59,2.56,.97,5.18,1.67,7.71,.48,1.74,1.3,3.4,2.05,5.06,3.55,7.81,6.23,15.99,11.27,23.14,2.7,3.82,4.49,8.34,6.33,12.69,3.55,8.42,5.17,17.41,7.52,26.19,.77,2.88,2.31,5.55,3.5,8.32,.32-.07,.63-.15,.95-.22-.44-4.84-.53-9.74-1.43-14.49-.85-4.49-2.62-8.8-3.87-13.22-.26-.92-.04-1.98-.04-3.24,5.22,4.44,10.01,8.69,15,12.69,3.61,2.89,7.49,5.45,11.25,8.15,1.78,1.28,3.45,2.78,5.37,3.81,3.56,1.92,6.68,4.58,10.84,5.54,2.36,.55,4.37,2.53,6.6,3.75,3.07,1.69,5.87,4.07,9.84,3.87-1.91-2.22-3.89-4.33-6.09-6.19ZM91.8,225.69c.51,2.98-.26,4.38-2.54,4.54,.9-1.61,1.6-2.86,2.54-4.54Zm-5.34,18.61c.58,3.41-2.33,8.62-5.44,9.97,.22-4.32,4.7-6.14,5.44-9.97Zm-50.98,222.59c-2.36-5.59-6.12-10.54-7.14-16.76-.47-2.83-2.16-5.43-2.94-8.24-1.24-4.47-2.18-9.03-3.26-13.55-.64-2.68-1.31-5.36-1.97-8.03-.07-.29-.21-.58-.19-.86,.26-3.47,.54-6.95,.82-10.42,.07-.88,.17-1.75,.22-2.63,.14-2.59-.22-5.17,1.06-7.72,.65-1.29,.11-3.18,.6-4.91,.49,.7,.97,1.4,1.84,2.65,1.43-5.71,1.59-11.17,4.43-16.54,.54,1.39,.97,2.23,1.2,3.12,1.01,3.98,2.38,7.94,2.77,11.99,.2,2.13,.15,4.32,.75,6.39,1.24,4.25,.47,8.43,.31,12.71-.16,4.38,1.26,8.82,1.92,13.24,.34,2.29,.57,4.61,.8,6.92,.23,2.19,.39,4.4,.6,6.59,.05,.57,.38,1.18,.25,1.68-1.08,4.11-.57,8.32-.92,12.45-.35,4.13,.18,8.2,0,12.79-.72-.53-1.05-.64-1.14-.86Zm16.7,93.66c-.81,5.93-.25,11.86-.76,17.71-.28,3.22-1.13,6.45-1,9.76,.05,1.36,0,2.72,0,4.08-.28,.06-.57,.12-.85,.18-2.54-3.78-5.54-7.25-6.65-11.92-.46-1.94-1.59-3.71-2.28-5.6-.66-1.79-1.23-3.63-1.7-5.48-1.48-5.73-2.31-11.53-2.24-17.49,.05-4.29-.59-8.59-.49-12.88,.07-2.76,1.05-5.48,1.39-8.24,.58-4.8,.93-9.62,1.48-14.42,.41-3.57,.98-7.13,1.53-10.68,.07-.43,.46-.8,.81-1.38,1.24,4.33,2.38,8.42,3.6,12.5,1.35,4.49,2.78,8.96,4.15,13.44,.14,.46,.21,.98,.15,1.45-.54,4.09,.92,7.84,1.83,11.7,.42,1.76,.43,3.62,.54,5.43,.24,3.95,1.01,7.99,.48,11.84Zm697.34-189.24c-.15-2.03-.02-4.17-.66-6.05-1.14-3.38-2.76-6.59-4.19-9.87-.78-1.77-2.04-3.46-2.3-5.3-.67-4.77-3.92-8.13-6.26-11.91-2.07-3.35-4.91-6.28-7.7-9.1-2.31-2.34-4.82-4.44-6.14-7.57-.99-2.36-2.1-4.61-4.4-6.05-.42-.26-.52-1-.85-1.45-2.02-2.69-3.9-5.51-6.14-8.01-2.26-2.53-4.88-4.72-7.32-7.09-2.57-2.49-4.19-5.81-6.61-8.31-2.6-2.69-3.87-6.05-5.9-8.99-2.25-3.27-3.97-6.9-5.98-10.33-.27-.46-.99-.63-1.36-1.05-.86-.96-2.1-1.89-2.34-3.02-.59-2.74-.92-5.58-.96-8.39-.13-9.83,.02-19.67-.16-29.5-.09-4.95-.59-9.89-1.06-14.82-.08-.84-.92-1.6-1.68-2.85-.49,17.02-.95,33.3-1.44,50.16-2.6-2.81-4.64-5.12-6.79-7.32-5.14-5.24-9.78-10.85-13.22-17.37-.76-1.45-1.32-3.02-2.15-4.42-1.04-1.74-1.93-3.89-3.51-4.92-2.09-1.37-3.48-3.06-4.71-5.1-3.52-5.82-7.32-11.47-10.58-17.43-2.7-4.93-4.82-10.18-7.11-15.32-1.18-2.66-2.06-5.46-3.32-8.08-.75-1.55-1.96-2.87-4.06-3.6,1.53,3.21,2.99,5.85,4.08,8.63,1.89,4.78,2.46,9.99,5.25,14.51,1.81,2.94,2.76,6.4,4.4,9.47,1.64,3.06,3.72,5.87,5.47,8.88,1.36,2.34,2.34,4.91,3.79,7.18,3.17,4.99,6.46,9.91,9.85,14.76,2,2.86,4.29,5.52,6.44,8.28,1.37,1.76,2.68,3.57,4.07,5.31,3.14,3.93,6.24,7.9,9.53,11.71,1.63,1.89,3.25,3.73,3.47,6.27,.23,2.68,.13,5.38,.2,8.07,.05,1.87-.01,3.75,.24,5.6,.38,2.78,1.01,5.52,1.5,8.28,.77,4.34,1.46,8.69,2.28,13.02,.54,2.84,1.26,5.66,1.89,8.48,.47,2.1,.79,4.26,1.46,6.3,.86,2.65,2.25,5.14,2.98,7.81,1.38,5.05,2.66,10.11,5.08,14.81,.65,1.27,.86,2.75,1.38,4.1,.86,2.23,1.74,4.46,2.73,6.64,.72,1.59,1.85,3.02,2.41,4.65,2.14,6.22,4.38,12.38,7.53,18.19,1.24,2.27,2.2,4.7,3.18,7.1,.9,2.21,1.28,4.71,2.53,6.68,3.15,4.97,5.05,10.43,7.05,15.87,.63,1.71,.94,3.54,1.41,5.31,.95,3.56,2.06,7.09,2.81,10.7,.7,3.36,1.34,6.72,1.4,10.23,.07,4.06,.95,8.1,1.47,12.15,.04,.29,.01,.59-.02,.89-.32,3.25-.58,6.51-1,9.74-.19,1.52-.98,2.99-.99,4.49-.04,4.89-.3,9.7-1.01,14.58-.8,5.52-2.3,10.79-3.99,16.03-1.01,3.12-2.43,6.11-3.37,9.25-1.4,4.65-2.72,9.33-3.74,14.07-1.4,6.45-2.38,13-3.75,19.46-.64,3.03-1.96,5.93-1.08,9.13,.06,.24-.19,.55-.25,.83-.59,2.85-1.21,5.7-1.75,8.56-.37,1.99-.78,3.98-.92,5.99-.23,3.16,.34,6.5-.5,9.46-1.51,5.29-1.3,10.66-1.75,16-.32,3.8-1.07,7.46-2.64,10.95-.36,.79-.68,1.62-.85,2.46-.55,2.75-1.05,5.51-1.51,8.28-.63,3.81-2.16,7.24-3.99,10.61-1.72,3.16-3.17,6.47-4.74,9.71-1.76,3.63-3.52,7.27-5.28,10.9-1.95,4.01-3.98,7.99-5.86,12.04-2.65,5.73-5.14,11.53-7.81,17.25-1.02,2.18-1.89,4.83-3.65,6.18-4.76,3.65-9.09,7.71-13.47,11.77-2.84,2.63-5.89,5.29-9.32,6.97-3.31,1.62-6.04,3.03-8.01,6.56-2.98,5.33-5.15,10.36-2.39,16.35,.16,.34,.23,.77,.2,1.15-.13,1.97-.64,4.15,2.59,3.93,.22-.01,.5,.52,.72,.83,1.9,2.62,4.12,3.19,7.07,1.61,1.7-.91,3.28-2.06,4.91-3.1,1.86,3.26,3.51,3.34,5.6,.36,2.16-3.09,4.62-6.01,6.53-9.25,4.26-7.24,8.45-14.53,12.31-21.99,3.62-6.98,7.33-13.87,11.54-20.53,3.12-4.92,5.91-10.09,8.46-15.33,2.28-4.7,3.97-9.69,6.04-14.5,3.99-9.25,8.07-18.47,12.1-27.71,3.45-7.91,6.81-15.86,10.31-23.75,2.91-6.54,5.96-13.01,8.99-19.49,1.18-2.52,2.6-4.94,3.67-7.5,2.42-5.79,4.82-11.59,6.98-17.48,2.27-6.19,4.44-12.43,6.24-18.76,.57-1.99,.42-4.66-.5-6.45-1.01-1.96-1.14-3.43-.69-5.49,.62-2.85,1.29-5.84-.07-8.86-.81,1.01-1.43,2.06-1.68,3.2-.76,3.46-1.15,7.03-2.11,10.43-2.13,7.59-5.5,14.76-7.47,22.44-1.17,4.56-3.67,8.76-5.19,13.25-1.68,4.97-4.74,9.27-6.24,14.38-1.65,5.65-4.39,10.98-6.9,17.04-.13-1.22-.31-1.86-.25-2.47,.3-3.41,.53-6.83,1.04-10.21,.65-4.32,1.55-8.6,2.35-12.89,.07-.38,.37-.81,.27-1.12-1.07-3.32,.21-6.51,.33-9.75,.26-6.53,2.31-12.64,3.25-18.99,.4-2.69,.69-5.4,1.17-8.08,.51-2.84,1.03-5.69,1.81-8.46,.99-3.53,2.31-6.97,3.38-10.48,.96-3.15,1.31-6.44,3.3-9.3,1.07-1.53,1.48-3.59,1.93-5.47,.76-3.2,1.22-6.47,1.97-9.67,1.82-7.77,5.39-15.06,5.72-23.27,.13-3.29,1.78-6.52,2.68-9.79,.54-1.97,1.16-3.95,1.38-5.96,.27-2.5,.07-5.02,1.59-7.27,.44-.66,.34-1.7,.41-2.57,.52-7.32,.99-14.64,1.54-21.96,.12-1.66,.66-3.3,.68-4.95,.05-4.52,.05-9.05-.16-13.56-.25-5.55-.72-11.09-1.12-16.63Zm-99.5,344.54c-1.38-1.14-2.48-2.04-3.73-3.08,2.03-.89,4.01-1.76,6-2.63,.11,.18,.22,.36,.33,.54-.84,1.67-1.67,3.33-2.59,5.16Zm85.88-302.55c-.01,.82-.2,1.63-.31,2.45-.23,.07-.45,.14-.68,.2-.67-.88-1.5-1.68-1.98-2.65-.68-1.36-1.18-2.84-1.65-4.3-.75-2.35-1.86-4.34-3.62-6.22-1.73-1.84-2.65-4.48-3.79-6.83-1.91-3.92-3.71-7.89-5.55-11.85-2.45-5.27-4.99-10.5-7.3-15.83-2.35-5.41-4.11-11.03-5.68-16.72-.78-2.83-1.76-5.55-3.66-8.09-1.85-2.45-2.6-5.8-3.58-8.84-1.04-3.23-1.8-6.54-2.65-9.83-.37-1.4-.58-2.85-1.02-4.23-1.88-5.96-4.24-11.66-8.33-16.53-.81-.96-1.1-2.47-1.34-3.77-.52-2.86-1.06-5.74-1.22-8.64-.21-3.87-.33-7.72-1.93-11.35-.28-.65-.16-1.47-.23-2.21,.35-.15,.71-.3,1.06-.45,1.73,3.06,3.45,6.13,5.19,9.19,.7,1.23,1.48,2.41,2.14,3.66,2.09,4,4.12,8.04,6.22,12.04,.44,.84,1.14,1.54,1.62,2.37,.57,.99,1.55,2.13,1.43,3.08-.39,2.88,1.25,4.7,2.95,6.41,1.8,1.82,2.62,3.99,3.52,6.31,1.08,2.79,2.56,5.53,4.37,7.92,3.36,4.44,7.06,8.61,10.65,12.87,5.88,6.98,9.92,14.8,11.21,23.95,.34,2.39,1.21,4.7,1.62,7.08,.34,1.92,.26,3.92,.56,5.85,.44,2.75,1.24,5.46,1.55,8.22,.38,3.39,.51,6.82,.55,10.24,.05,5.51-.06,11.01-.13,16.52Zm-266.49,201.74c.81-.71,1.57-1.67,2.53-2.01,4.29-1.51,6.27-5.54,9.33-8.37,3.08-2.85,5.92-5.96,8.86-8.97,2.36-2.42,4.72-4.85,7.07-7.28,.13-.14,.21-.33,.32-.49,3.32-4.75,6.67-9.48,9.95-14.26,1.97-2.86,4.2-5.63,5.64-8.75,1.33-2.87,1.76-6.14,2.57-9.25,.49-1.87,1.02-3.74,1.36-5.64,.34-1.91,.73-3.86,.63-5.78-.13-2.5-.69-4.99-1.12-7.47-1.09-6.34-3.78-11.7-9.57-15.01-1.5-.86-3.34-1.14-4.83-2.02-3.39-2-7.05-2.69-10.9-2.85-1.96-.08-3.91-.43-5.86-.47-2.04-.04-4.37-.45-6.08,.36-3.45,1.62-6.83,3.17-10.63,3.88-3.4,.64-6.75,1.63-10.07,2.65-1.45,.45-2.85,1.22-4.11,2.08-1.77,1.21-3.56,2.47-5.02,4.02-1.64,1.73-3.47,3.59-4.25,5.75-1.97,5.44-3.33,11.11-5.06,16.64-1.23,3.91-2.6,7.77-4.04,11.61-1.5,4-3.16,7.95-4.73,11.92-.36,.9-.79,1.81-.95,2.76-.47,2.79-.92,5.59-1.19,8.41-.17,1.69,0,3.41,.01,5.12,.29,.04,.57,.07,.86,.11,1.31-1.79,2.42-3.77,3.96-5.32,2.46-2.48,5.1-4.8,7.84-6.96,5.96-4.69,12.01-9.26,18.09-13.8,1.36-1.01,2.97-1.68,4.68-2.63,.54,1.32,.97,2.38,1.35,3.31-1.45,1.05-2.48,1.75-3.45,2.51-2.21,1.74-4.39,3.5-6.57,5.27-1.97,1.6-4.06,3.1-5.81,4.91-.95,.98-1.27,2.54-1.94,3.81-.8,1.5-1.39,3.24-2.56,4.36-2.36,2.28-4.97,4.16-5.91,7.65-.53,1.94-1.18,4.25-3.64,5.05-.4,.13-.67,.7-.98,1.08-2.64,3.24-5.39,6.4-7.88,9.75-1.81,2.43-4.04,4.93-4.69,7.73-.77,3.29-3.65,4.21-5.2,6.49-1.18,1.74-2.93,3.1-4.42,4.63-1.51,1.54-2.81,3.39-4.56,4.57-3.14,2.1-5.61,4.54-6.75,8.24-.3,.97-1.05,1.85-1.75,2.62-2.78,3.08-5.39,6.26-7.47,9.88-2.22,3.85-5.03,6.84-10.02,7.03-1.85,.07-3.71,1.22-5.47,2.06-1.38,.66-3.46,5.95-2.69,7.02,1.84,2.56,1.9,5.59,2.76,8.42,1.59,5.26,1.15,10.55,.53,15.75-.81,6.73-.72,13.39-.17,20.09,.11,1.35,.63,2.7,.55,4.03-.17,2.6,1.01,4.5,2.63,6.3,1.04,1.16,2.31,2.28,2.89,3.66,1.29,3.08,3.62,4.42,6.69,4.93,3.26,.54,8.8-2.16,9.84-6.31,.77-3.07-.23-6.56-5.17-7.16-2.26-.27-3.36-1.24-3.19-3.63,.06-.91-.43-1.85-.56-2.8-.14-1.03-.54-2.23-.17-3.09,2.19-5.15,1.25-10.58,1.66-15.88,.11-1.36-.14-2.78,.16-4.08,1.01-4.31,2.07-8.61,3.37-12.83,.74-2.39,1.6-4.83,4.05-6.24,.69-.4,1.03-1.39,1.58-2.07,1.2-1.49,2.4-2.97,3.64-4.42,1.56-1.82,3.49-3.42,4.68-5.46,1.91-3.27,4.44-5.97,7.58-7.74,4.11-2.32,8.3-4.38,12.07-7.35,4.81-3.78,10.19-6.85,15.18-10.43,2.67-1.92,5.06-4.24,7.55-6.41,1.9-1.65,3.66-3.48,5.68-4.98,3.13-2.33,6.43-4.43,9.63-6.67,.64-.45,1.11-1.12,1.7-1.63Zm-108.2,119.92c3.25-2.14,5.19-5.32,6.82-8.64,2.9-5.91,5.19-11.98,2.55-18.71-.45-1.15-.53-2.48-.58-3.73-.14-3.32-.19-6.64-.23-9.96-.1-7.22-.11-14.44-.32-21.65-.03-.99-.74-2.36-1.56-2.85-1.27-.76-2.91-.9-4.38-1.33-.78-.22-1.64-.34-2.3-.76-.77-.5-1.35-1.3-2.04-1.93-2.65-2.39-5.5-4.59-7.95-7.17-4.16-4.37-8.04-9-12.1-13.46-1.58-1.73-3.35-3.28-5-4.94-1.64-1.64-3.27-3.3-4.86-4.99-.97-1.04-1.87-2.15-2.77-3.26-.48-.59-.88-1.24-1.33-1.85-1.61-2.19-4.27-3.62-4.3-6.95-.01-1.53-.69-3.35-1.68-4.53-3.81-4.61-6.76-9.7-9.36-15.04-.75-1.55-1.74-3.01-2.8-4.37-1.05-1.34-3.02-2.32-3.37-3.76-.77-3.18-3.84-4.27-5.21-6.78-.58-1.06-1.1-2.35-2.02-3-3.52-2.48-6.07-6.3-10.52-7.5-2.57-.69-4.48-3.04-7.47-2.84-1.63,.11-3.28-.27-4.93-.42-.03-.42-.06-.84-.09-1.26,.76-.21,1.58-.72,2.26-.57,3.62,.82,7.28,.17,10.89,.43,2.36,.17,4.94,.83,6.93,2.06,4.26,2.65,8.28,5.7,12.21,8.83,1.7,1.35,3.03,1.13,4.43,.03,1.44-1.13,2.11-2.56,.92-4.35-.38-.57-.56-1.26-.91-1.85-3.33-5.62-6.74-11.19-9.99-16.86-1.21-2.11-1.7-4.71-3.15-6.61-3.26-4.29-5.01-9.24-6.94-14.13-1.61-4.07-3.11-8.19-4.7-12.27-.63-1.63-2.1-2.15-3.88-1.09-1.49,.89-2.54,.59-3.69-.4-.51-.44-1.08-.99-1.69-1.11-4.28-.84-8.36-2.82-12.91-2.19-1.04,.15-2.16-.28-3.22-.19-3.86,.33-7.73,.66-11.57,1.21-3.8,.54-6.68,3.08-9.95,4.81-6.33,3.35-10.13,8.42-11.84,15.16-1.76,6.95-1.89,13.82,1.89,20.3,.23,.39,.17,.95,.31,1.4,.43,1.36,.63,2.9,1.41,4.03,1.84,2.67,4.03,5.11,5.96,7.73,.91,1.24,1.29,2.95,2.34,4.01,3.13,3.15,6.37,6.22,9.78,9.07,2.61,2.18,5.54,3.98,8.33,5.96,.69,.49,1.49,.93,2.02,1.56,5.01,6.02,11.65,10.21,17.46,15.33,4.45,3.92,9.28,7.4,13.34,11.79,2.16,2.33,4.63,4.37,7.04,6.45,1.23,1.06,2.66,1.89,4,2.83,1.26,.68,2.32,1.64,3.42,2.54,2.79,2.29,5.63,4.52,8.37,6.85,.88,.75,1.38,1.98,2.31,2.61,6.72,4.56,11.5,11.09,17.18,16.69,2.56,2.53,4.64,5.88,7.66,7.54,4.91,2.69,7.72,7.11,10.96,11.16,1.73,2.17,3.46,5.23,3.34,7.81-.24,5.22,2.19,10.38,.18,15.6-.29,.75,.31,1.84,.52,2.77,.19,.85,.58,1.7,.57,2.55-.02,3.31,1.17,6.8-1.31,9.8-.27,.32-.15,.95-.25,1.43-.35,1.78-.49,3.64-1.14,5.31-1.11,2.84-.77,6.09,1.14,7.59,2.63,2.07,4.82,2.01,7.79,.06Zm-22.3-486.86c1.01,3.32,1.95,6.65,3.05,10.41-.91,.57-2.04,1.69-3.36,2-3.75,.89-6.94,2.56-9.56,5.41-.93,1.01-2.03,1.84-3.06,2.76-1.59,1.43-3.58,2.18-5.43,1.21-2.12-1.11-4.05-2.73-5.82-4.38-3.67-3.42-7.1-7.1-10.78-10.51-2.9-2.68-5.54-5.4-6.79-9.33-.59-1.86-.28-2.44,1.48-2.82,1.21-.26,2.47-.67,3.51-1.31,2.81-1.74,5.74-3.4,8.22-5.55,4.89-4.24,9.67-8.68,10.91-15.55,.15-.83,.58-1.63,1-2.38,.79-1.42,1.51-2.72,.1-4.27-1.57-1.72-3.4-2.35-5.41-1.65-3.28,1.15-5.44,3.7-7.63,6.18-.47,.53-.49,1.44-.82,2.13-1.31,2.79-2.28,5.84-4.08,8.27-2.5,3.36-5.63,6.24-8.49,9.32-1.77,1.91-3.1,1.73-4-.85-.75-2.16-.73-4.6-1.52-6.74-1.71-4.64-2.23-9.37-2.01-14.26,.07-1.52-.79-3.27-.27-4.53,.95-2.3,.93-4.95,1.89-6.94,2.18-4.49,4.97-8.83,8.24-12.6,2.63-3.03,6.38-5.08,9.54-7.67,1.46-1.2,2.92-2.53,3.97-4.08,1.69-2.51,.35-4.77-2.72-4.64-1.61,.07-3.29,.44-4.78,1.05-3.83,1.56-7.47,3.4-9.34,7.52-.4,.88-1.51,1.46-2.31,2.15-1.47,1.27-3.15,2.38-4.38,3.85-1,1.19-1.38,2.89-2.2,4.25-1.75,2.9-3.63,5.73-5.43,8.61-.2,.32-.37,.72-.39,1.09-.33,4.57-.74,9.14-.87,13.72-.05,1.71,.6,3.45,.9,5.18,.56,3.23,1.12,6.45,1.66,9.68,.24,1.45,.15,3.04,.75,4.31,1.69,3.56,3.35,7.21,5.61,10.42,2.61,3.72,3.78,8.73,8.72,10.57,.15,.06,.22,.31,.35,.47,3.96,4.85,9.15,8.01,14.6,10.92,1.74,.93,3.38,2.44,4.47,4.08,.86,1.29,1.37,3.33,1.02,4.78-.61,2.5-2.19,4.76-3.03,7.23-.82,2.4-2.36,4.8-.91,8,.9-.68,1.86-1.08,2.28-1.8,.94-1.59,1.69-3.3,2.36-5.03,1.71-4.4,4.14-7.91,9.15-9.14,1.97-.48,3.6-1.64,4.84-3.79,1.15-2.01,3.7-3.33,5.83-4.62,1.47-.89,3.25-1.33,4.94-1.77,1.97-.51,4.54-1.75,5.89-.98,3.21,1.83,6.6,.43,9.76,1.55,3.09,1.09,6.38,1.64,9.59,2.36,.98,.22,2.03,.36,3.02,.27,3.99-.36,7.47,1.29,11.01,2.69,3.2,1.26,5.73,3.89,9.6,3.89,1.86,0,3.99,1.22,5.54,2.45,6.13,4.85,8.92,11.58,9.89,19.12,.59,4.63-.04,9.1,.48,13.74,.03,.24-.17,.91-.41,1.81-.03-.02-.05-.04-.08-.06-1.22,.76-2.23,1.59-3.39,2.04-1.08,.42-2.49,.62-2.76-1.11-.42-2.74-.96-5.51-.97-8.27-.02-4.77-3.06-7.19-6.61-9.26-2.59-1.51-5.47-2.04-8.43-2.67-4.76-1.01-9.15-.78-13.6,.84-4.03,1.47-8.17,2.11-12.44,1.64-3.5-.39-6.99-.84-10.47-1.37-3.1-.48-6.17-1.15-9.27-1.66-2.24-.37-4.62-1.2-6.73-.79-5.36,1.04-9.24,6.66-9.07,12.24,.04,1.37,.04,2.76-.14,4.12-.09,.68-.57,1.77-1.02,1.85-2.19,.38-4.44,.92-6.52-.58-.64-.46-1.51-.61-2.27-.91-.13,1.01-.4,2.03-.34,3.03,.1,1.62,.43,3.23,.63,4.85,.17,1.42,.01,2.95,.49,4.25,2.17,5.86,4.92,11.54,6.62,17.53,.91,3.2,2.58,5.56,4.52,7.95,.6,.74,1.48,1.25,2.07,2,1.49,1.9,2.62,4.17,4.38,5.77,4.02,3.66,8.19,7.18,12.55,10.43,2.71,2.02,5.77,3.63,8.83,5.1,2.12,1.02,4.7,1.14,6.74,2.28,4.03,2.23,7.8,1.29,11.24-.77,2.73-1.63,5.01-4.05,7.38-6.23,2.1-1.93,3.98-4.08,6.08-6.01,2.34-2.15,4.89-4.07,7.2-6.26,6.95-6.58,10.76-15.12,14.39-23.72,1.57-3.73,2.79-7.62,4.03-11.48,.05-.17,.08-.36,.1-.56,1.01-2.49,1.97-5.14,2.06-5.65,.84-4.34,1.54-8.72,2.13-13.1,.54-4.07-1.61-8.07-.36-12.22,.21-.71-.41-1.68-.7-2.51-.16-.46-.58-.84-.67-1.3-.73-3.49-2.36-7.11,1.86-9.74,2.89-1.8,5.42-4.37,8.51-5.6,2.29-.91,4.08-2.17,5.88-3.65,1.21-1,2.47-1.93,3.65-2.96,3.24-2.83,7.16-5.2,9.49-8.65,3.63-5.39,7.5-10.74,8.57-17.67,.49-3.14,.46-6.2,.5-9.25,.07-4.92-.41-9.87-1.01-14.77-.35-2.86-.71-6.08-2.23-8.37-3.63-5.49-5.55-12.03-11.04-16.45-4.04-3.25-7.21-7.58-10.79-11.39-.3-.32-.83-.57-1.26-.58-2.26-.06-4.56-.29-6.78,.04-2.43,.36-4.38,1.96-5.03,4.34-.29,1.07,.31,2.72,1.06,3.67,1.55,1.98,3.23,4.01,5.28,5.41,4.93,3.39,9.23,7.37,12.95,12.03,1.84,2.3,4.01,4.14,5.11,7.25,1.24,3.51,3.72,6.59,3.82,10.56,.09,3.68,2.26,7.23,.69,11.04-.2,.49-.17,1.33,.13,1.71,1.13,1.43,.31,2.28-.55,3.08-5.09-.59-9.63-2.01-13.14-5.77-.32-.35-.87-.49-1.21-.83-.78-.76-1.52-1.58-2.25-2.39-1.49-1.66-2.82-3.5-4.49-4.94-1.58-1.37-3.6-1.88-5.26,0-1.85,2.1-3.61,5.14-1.89,7.36,1.84,2.37,3.3,5.02,5.07,7.44,2.86,3.91,7.5,5.07,11.56,7,2.74,1.3,5.92,1.68,9.46,2.62-3.23,3.21-3.46,7.88-7.52,10.38-2.95,1.83-5.22,4.73-7.96,6.94-3.04,2.45-6.3,4.63-9.44,6.96-1.86,1.38-3.69,2.81-5.47,4.17-6.92-6.31-14.74-10.64-23.97-13.54,5.09-3.91,4.53-9.43,5.22-14.55,.09-.67,.21-1.46-.04-2.04-1.92-4.47-4.57-8.47-8.73-11.13-2.28-1.46-4.81-2.67-7.39-3.5-1.73-.56-3.74-.27-5.63-.32-1.41-.03-2.82,.03-4.23,.02-1.72,0-3.62-.53-5.12,.03-7.54,2.85-14.11,7.13-18.48,14.15-1.16,1.86-2.56,3.73-1.81,6.22Zm7.78,78.78c-3.83-1.28-7.63-2.65-11.47-3.88-.9-.29-2.05,.09-2.88-.3-.95-.44-1.91-1.25-2.38-2.15-.21-.41,.57-1.71,1.21-2.13,2.94-1.93,6.29-1.1,9.39-.74,3.66,.42,6.07,3.24,8.33,5.95,.35,.42,.53,.98,.66,1.22,.08,1.85-1.14,2.6-2.86,2.03Zm13.97,20.9c-2.21-.03-2.81-.88-2.56-3.54,.32-3.46,.52-6.94,.99-10.38,.18-1.38,.93-2.68,1.58-4.48,.73,.6,1.3,.82,1.38,1.17,1.12,4.58,2.29,9.16,3.19,13.78,.39,2-1.81,3.49-4.58,3.46Zm.03-31.26c3.31,2.42,3.31,3.14,.17,4.95-2.46-1.88-2.51-2.86-.17-4.95Zm.11-3.9c-1.82,.03-3.87-2.5-3.89-4.82-.03-2.5,1.74-4.7,3.82-4.77,2.16-.07,4.61,2.95,4.57,5.64-.02,1.69-2.56,3.92-4.5,3.95Zm33.65,11.69c-.19,.71-1.73,1.39-2.72,1.48-2.33,.21-4.71-.1-7.04,.1-2.84,.24-5.65,.78-9.17,1.29-.96-.53-.69-1.36,.27-3.02,2.5-4.32,6.42-5.58,10.84-5.55,2.4,.02,5.12,.41,6.91,2.38,.72,.79,1.18,2.34,.92,3.33Zm-43.83-76.89c.53-1.05-.21-2.88,.44-3.71,1.47-1.86,3.21-3.81,5.28-4.84,3.79-1.89,7.74-1.07,11.49,.72,.61,.29,1.31,.55,1.97,.55,2.3,0,3.34,1.48,3.89,3.34,.61,2.03,.96,4.14,1.43,6.22,.81,3.21-1.35,5.2-3.16,6.95-.85,.82-2.83,.56-4.3,.6-.82,.02-1.81-.72-2.46-.46-3.29,1.29-6.34-.1-9.47-.58-.19-.03-.35-.18-.54-.23-1.38-.44-3.46,.86-4.13-1.24-.75-2.34-1.76-4.7-.44-7.31Zm43.34,337.53c2.03-3.1,4.12-6.18,6.48-9.02,2.18-2.61,3.63-5.78,3.41-8.78-.25-3.5-1.48-7.38-3.53-10.19-2.57-3.53-4.37-7.53-7.4-10.84-2.59-2.83-4.88-5.35-8.89-5.78-4.22-.46-8.18-3.07-12.67-1.34-1.33,.51-2.85,.86-4.27,.8-4.3-.18-7.96,1.48-11.61,3.42-4.09,2.17-6.66,5.75-8.67,9.64-1.36,2.63-1.82,5.72-2.79,8.57-1.1,3.25-2.03,6.45-.19,9.76,1.62,2.91,1.45,6.66,4.24,9.04,.26,.22,.31,.71,.4,1.09,.91,4.05,4.24,5.94,7.31,7.94,2.43,1.58,5.05,2.89,7.7,4.07,1.45,.64,3.2,1.2,4.71,1.02,4.58-.55,9.11-1.48,13.65-2.26,.07,.24,.15,.47,.22,.71,4.71-1.43,9.01-3.42,11.89-7.82Zm192.83,243.69c.73-3.57-1.41-6.63-1.59-10.02-.07-1.3-.44-2.7-.08-3.87,.49-1.64,.61-3.02-.42-4.45-.38-.53-.57-1.22-.76-1.87-.76-2.59-1.46-5.21-2.25-7.79-.95-3.12-1.98-6.21-2.96-9.32-1.08-3.44-2.01-6.93-3.22-10.33-1.71-4.78-3.75-9.44-5.4-14.23-.99-2.87-2.79-4.82-5.41-4.77-.32,.05-.82,.07-1.29,.19-2.61,.68-5.1,1.61-6.46,4.18-1.28,2.42-1.51,4.79,.51,7.06,.44,.5,.32,1.48,.51,2.23,.35,1.41,.59,2.88,1.12,4.22,1.04,2.61,2.38,5.02,2.82,7.94,.44,2.94,1.69,5.81,2.88,8.57,1.2,2.78,3.1,5.28,4.09,8.11,1.97,5.66,3.25,11.57,7.17,16.37,.34,.41,.32,1.11,.48,1.67,1.18,4.2,2.18,8.46,3.59,12.58,1.34,3.89,1.72,7.76,.82,11.72-.65,2.88-5.26,5.02-7.02,3.23-1.68-1.71-3.29-3.75-4.17-5.94-1.7-4.24-2.82-8.72-4.28-13.06-1.48-4.4-4.1-8.28-4.89-13.07-.66-3.97-2.82-7.67-4.12-11.55-1.09-3.24-1.84-6.6-2.82-9.88-1.17-3.91-2.99-7.73-3.47-11.72-.56-4.67-3.43-7.59-6.24-10.64-.66-.72-2.42-.91-3.52-.66-2.69,.61-4.6,2.42-4.91,5.23-.21,1.87,.21,3.81,.31,5.73,.24,4.35,1.71,8.4,3.02,12.49,2.05,6.41,4.17,12.8,6,19.27,1.09,3.85,1.48,7.9,4.16,11.17,.52,.63,.52,1.67,.82,2.5,1.5,4.24,2.82,8.55,4.6,12.66,.87,2,2.38,3.87,3.98,5.39,4.31,4.08,9.69,6.29,15.29,7.88,1.11,.32,2.7,.17,3.66-.42,2.16-1.31,4.09-3.01,6.07-4.61,1.65-1.34,2.77-2.98,2.94-5.21,.34-4.57,1.64-9.08,.51-13.72-.25-1.03-.32-2.2-.11-3.23ZM492.06,113.89c.33,3.36,.35,6.76,.52,10.39,2.93-1.27,4.85-2.96,5.9-5.54,.69-1.7,1.3-3.42,1.98-5.12,1.14-2.87,2.48-5.67,3.41-8.61,.92-2.93,1.3-6.03,2.15-8.99,.98-3.44,2.17-6.82,3.35-10.2,1.01-2.87,2.56-3.19,4.84-1.21,1.09,.95,2.21,1.98,3.51,2.57,3.46,1.58,4.78,5.52,2.88,8.77-1.41,2.42-2.94,4.83-3.92,7.44-3.25,8.61-6.17,17.35-8.4,26.29-.81,3.26,.23,5.76,2.8,6.02,2.04,.2,4.13,.25,6.16,0,1.67-.21,3.1-.78,3.74-2.94,1.74-5.8,3.84-11.5,5.85-17.22,.64-1.83,1.42-3.61,2.19-5.39,1.61-3.69,3.22-7.43,2.17-11.56-.73-2.85-1.87-5.59-2.93-8.69,1.34-.29,2.58-.48,3.77-.82,2.87-.83,3.82-3.35,5.09-5.69,2.61-4.79,5.5-9.42,8.06-14.23,.7-1.3,.38-3.13,1.01-4.48,1.76-3.75,.1-6.98-1.25-10.26-1.22-2.97-3.76-4.87-5.99-7.03-2.83-2.73-5.51-5.6-9.63-6.36-1.61-.29-3.24-.59-4.79-1.1-4.01-1.3-7.34,.1-9.01,3.9-.62,1.42-1.37,2.78-1.91,4.23-1.14,3.07-2.64,6.11-3.12,9.3-.36,2.4-.93,4.53-2.11,6.58-.28,.49-.31,1.13-.41,1.7-.34,2.1-.32,4.34-1.07,6.27-.97,2.5-.69,5.3-2.66,7.63-1.83,2.17-2.96,5.01-4.08,7.69-1.57,3.74-3.15,7.53-4.2,11.44-1.36,5.04-4.45,9.63-3.91,15.19Zm23.46-42.56c2.81-3.02,2.87-7.59,6.13-10.37,.86-.73,1.05-2.26,1.5-3.44,.61-1.61,.88-3.42,1.81-4.81,1.16-1.74,2.41-3.24,1.95-5.53-.08-.42,.63-1.01,.98-1.52,.41,.47,.88,.89,1.21,1.41,.3,.47,.29,1.27,.68,1.54,2.47,1.7,2.59,4.68,3.92,6.99,.32,.56,.22,1.43,.16,2.14-.05,.56-.53,1.13-.47,1.65,.44,3.65-1.59,6.24-3.41,9.08-1.98,3.1-3.44,6.54-5.25,10.07-3.88-1.14-7.37-2.16-11.07-3.25,.57-1.26,.9-2.91,1.87-3.96Zm-168.49,759.6c-1.51-7.05-3.72-14-8.53-19.73-4.16-4.95-12.25-5.2-17.05,.39-2.25,2.63-4.03,5.7-5.75,8.72-.89,1.56-1.21,3.46-1.71,5.23-.18,.65,.04,1.44-.23,2.03-2.14,4.67-3.69,9.44-3.07,14.69,.06,.48-.44,1.03-.72,1.53-.34,.58-.97,1.1-1.05,1.71-.51,3.94-1,7.89-1.28,11.86-.15,2.07,.69,4.35,.11,6.24-1.03,3.34-.29,6.57-.36,9.84-.07,3.6,.99,7.06,.41,10.8-.41,2.67,.94,5.67,1.81,8.43,.2,.63,1.68,1.23,2.52,1.17,.6-.04,1.48-1.14,1.62-1.88,.51-2.84,.7-5.72,1.13-8.58,.3-2.01,.73-4,1.19-5.98,.89-3.79,1.86-7.57,2.79-11.35,.02-.09,.01-.2,0-.29-.55-4.48,1.5-8.35,2.52-12.12,2.94,.15,5.56,.1,8.12,.49,1.17,.18,3.06,1.1,3.15,1.86,.28,2.46-.12,5-.26,7.5-.11,1.82-.34,3.65-.3,5.47,.04,2.15,.68,4.33,.42,6.42-.73,5.77-1.79,11.4-.3,17.3,1.17,4.67,3.23,6.4,7.94,5.05,3.84-1.11,5.38-3.22,5.3-6.74-.12-4.86-.24-9.73,0-14.58,.32-6.43,1.03-12.84,1.51-19.27,.19-2.49,.08-5.01,.33-7.49,.16-1.63,1.33-3.36,.99-4.8-1.11-4.63-.27-9.42-1.23-13.91Zm-12.91,14.52c-.92,4.75-2.27,4.63-5.34,3.61-1.35-.45-2.9-.28-4.33-.52-1.97-.33-2.58-1.7-2.13-3.47,1.24-4.87,2.82-9.61,2.84-14.77,0-1.99,1.52-3.95,2.23-5.97,.87-2.47,1.59-5,2.46-7.48,.17-.47,.82-1.18,1.09-1.12,.56,.14,1.32,.63,1.47,1.13,.73,2.41,1.28,4.87,1.89,7.32-.16,.03-.32,.05-.48,.08,.24,3.34,.63,6.68,.69,10.03,.06,3.73,.31,7.55-.39,11.17ZM300.25,46.56c.19,1.1,.68,2.19,.68,3.29,0,3.01-.31,6.03-.29,9.04,0,1.54,.75,3.1,.63,4.61-.7,8.46,1.09,16.69,2.32,24.94,.43,2.85,2.21,5.54,2.3,8.61,0,.18,.13,.4,.27,.51,2.69,2.21,5.17,4.77,8.14,6.5,2.88,1.67,6.15,2.15,9.73,1.44,2.46-.49,4.7-.88,6.66-2.54,3.21-2.72,6.22-5.61,7.25-9.86,.59-2.42,1.13-4.95,1.08-7.42-.1-5.48-.71-10.94-.87-16.42-.1-3.43,.13-6.89,.38-10.32,.27-3.71,1.41-7.49,.99-11.1-.88-7.66-1.27-15.41-3.43-22.92-1.1-3.82-2.97-6.93-6.48-8.38-2.33-.97-5.2-.64-7.44-.85-4.08,.09-7.56,.74-10.6,3.08-.9,.69-2.09,1-3.12,1.54-2.58,1.33-5.97,2.16-6.8,5.15-1.26,4.52-1.69,9.26-2.46,13.91-.03,.19,.03,.39,.06,.58,.33,2.2,.65,4.41,1.01,6.61Zm12.93-18.62c1.49-2.99,4.26-1.8,6.49-1.35,1.95,.4,3.34,1.73,3.7,4.03,.29,1.88,1.12,3.68,1.59,5.54,.25,1,.24,2.07,.35,3.1-.23,.04-.45,.08-.68,.12,.9,4.72,1.84,9.43,2.66,14.16,.23,1.33,.05,2.73,.07,4.09,.07,5.13,.12,10.25,.23,15.38,.01,.65,.3,1.3,.48,1.94,.16,.56,.46,1.09,.51,1.65,.35,4.12,.85,8.24,.91,12.37,.04,2.7-.43,5.43-.95,8.09-.42,2.15-3.93,3.71-6.62,2.8-2.18-.74-4.16-2.07-6.21-3.16-.24-.13-.47-.4-.55-.65-.77-2.52-1.94-5.01-2.16-7.58-.34-3.96-1.23-8.06,.77-11.92,.08-.16,.1-.41,.04-.58-1.21-3.35,.63-6.66,.15-10-.35-2.48-.91-4.96-.95-7.45-.04-3.01,.43-6.01,.55-9.03,.04-.94-.16-1.98-.57-2.82-1.35-2.75-1.64-5.58-1.17-8.56,.14-.86,.26-1.87-.06-2.61-1.25-2.9,.29-5.23,1.45-7.56Zm74.91,787.26c-1.01,.2-2.1,1.31-2.64,2.31-.86,1.61-1.48,3.4-1.87,5.19-.58,2.65-1.24,5.38-1.14,8.05,.07,1.61,.23,2.99-.51,4.48-.36,.72-.22,1.69-.29,2.55-.16,2.11-.35,4.22-.43,6.34-.04,1.14,.09,2.28,.17,3.43,.14,2.04,.46,4.09,.41,6.12-.08,3.12-.45,6.23-.61,9.34-.07,1.38,.04,2.74-1.73,3.46-.35-.58-.75-1.03-.92-1.56-1.21-3.8-2.38-7.62-3.53-11.44-.7-2.32-1.42-4.64-2.01-7-.95-3.8-1.78-7.63-2.69-11.44-1-4.18-2.07-8.35-3.02-12.55-.53-2.33-.98-4.64-3.53-6.06-3.34,1.99-3.89,5.43-4.66,8.55-1.17,4.71-1.53,9.64-2.94,14.26-1.61,5.29-1.64,10.72-2.23,16.09-.44,3.98-.31,8.03-.24,12.05,.08,4.68-1.28,9.33,.01,14.06,.61,2.22,.85,4.65,.69,6.94-.21,3.11,.58,5.79,2.14,8.38,1.02,1.68,2.12,1.82,2.9,.1,.79-1.76,1.31-3.68,1.73-5.58,.66-2.96,1.16-5.95,1.69-8.94,1.03-5.82,2.06-11.65,3.02-17.48,.12-.74-.21-1.54-.28-2.32-.1-1.17-.27-2.34-.19-3.5,.24-3.49,.57-6.97,.89-10.45,.08-.91,.25-1.81,.38-2.71,.29-.02,.58-.03,.87-.05,.7,2.89,1.42,5.78,2.1,8.68,.18,.76,.2,1.57,.4,2.32,1.39,5.31,2.8,10.61,4.2,15.91,.42,1.59,.85,3.18,1.3,4.77,.42,1.46,.92,2.9,1.31,4.37,.2,.75,.16,1.56,.38,2.31,1.18,4.1,2.55,8.15,3.56,12.29,.87,3.58,5.53,5.83,8.25,3.38,2.51-2.27,4.46-5.04,4.2-8.96-.37-5.73-.42-11.5-.36-17.24,.04-3.9,.56-7.79,.74-11.68,.15-3.22,.17-6.46,.13-9.69-.04-3.36-.35-6.72-.32-10.08,.04-5.1,.03-10.21,.51-15.28,.38-3.94-2.19-6.79-3.06-10.24-.19-.74-1.94-1.67-2.77-1.5ZM350.6,84.05c.34,1.69,.49,3.42,.73,5.14,.45,3.16,.85,6.33,1.39,9.48,.09,.53,.73,1.25,1.21,1.34,.52,.09,1.53-.36,1.65-.78,.57-1.86,1.11-3.77,1.28-5.7,.34-3.92,.39-7.87,.66-11.8,.31-4.56,1.06-9.12,.95-13.66-.04-1.71,.01-2.96,1.25-4.45,1,.64,2.15,1.17,3.05,1.99,1.66,1.51,3.06,3.32,4.78,4.74,2.19,1.8,2.85,4.29,2.96,6.77,.16,3.67,1.95,7.3,.37,11.04-.15,.36,.24,.92,.28,1.4,.1,1.05,.55,2.32,.14,3.12-1.53,2.94,.07,5.58,.64,8.23,.63,2.94,2.11,3.61,5.23,3.37,5.17-.4,8.03-3.62,8.02-8.81,0-7.42,.37-14.83-.82-22.24-.49-3.03-1.4-5.6-3.24-7.98-1.3-1.67-2.47-3.45-3.58-5.25-.29-.47-.41-1.42-.13-1.81,2.09-2.96,1.76-6.3,1.77-9.62,0-1.36,.24-2.71,.31-4.07,.07-1.32,.11-2.65,.05-3.96-.04-.86-.43-1.72-.44-2.58-.07-4.7,0-9.4-.15-14.1-.03-.94-.63-2.06-1.32-2.73-3.06-2.98-6.52-4.76-11.03-5.25-5.15-.56-9.04,1.51-12.95,4.06-.77,.5-1.63,1.42-1.76,2.26-.89,5.52-1.84,11.05-2.25,16.61-.23,3.16,.54,6.39,.83,9.59,.06,.67,.06,1.37-.02,2.04-.27,2.2-.9,4.39-.85,6.57,.22,9.01-.82,18.07,.98,27.02Zm8.94-43.18c-.48-1.25,.39-2.96,.47-4.47,.15-3.29,.19-6.59,.27-9.89,.02-.87,0-1.74,0-2.57,3.05-.85,4.53-.3,4.58,2.21,.18,8.69,.07,17.39,.07,26.25-1.49,.4-2.8,.75-4.73,1.27-.2-1.09-.25-2.24-.63-3.26-1.17-3.17,1.22-6.28-.02-9.54Zm193.73,806.08c-.26-.74-.51-1.48-.81-2.2-1.58-3.74-2.64-7.82-6.68-9.93-.43-.23-.81-.87-.9-1.38-.8-4.23-4.65-7.35-4.39-11.97,.01-.25-.19-.64-.4-.76-3.22-1.9-4.49-5.19-6.05-8.3-1.75-3.49-3.41-7.04-5.48-10.34-2.01-3.21-4.02-6.71-6.91-8.98-2.27-1.79-3.84-3.62-5.13-6.08-.67-1.28-1.99-2.79-3.26-3.06-3.59-.77-6.98,.43-9.29,3.24-2.05,2.49-3.8,5.42-1.35,8.81,.26,.36,.48,1.03,.31,1.36-1.27,2.5,.18,4.75,.54,7.08,.48,3.2,.98,6.4,1.53,9.58,.31,1.78,1.32,3.48,.29,5.37-.22,.4-.06,1.39,.28,1.64,1.81,1.35,1.57,3.17,1.5,5.04-.03,.75,.29,1.52,.53,2.26,.85,2.57,2.07,5.06,2.52,7.69,.69,4.11,1.72,8.02,3.66,11.71,1.27,2.4,2.55,4.82,3.53,7.35,1.55,3.98,2.76,8.1,4.29,12.09,1.07,2.8,2.33,5.53,3.7,8.2,.66,1.29,1.76,2.37,2.67,3.54,.29-.1,.58-.2,.87-.3,.14-.99,.51-2.02,.37-2.97-.21-1.43-.82-2.79-1.18-4.2-.66-2.62-1.26-5.26-1.9-7.88-.72-2.94-1.57-5.84-2.16-8.8-1.1-5.48,.71-11.29-1.79-16.66-.16-.35,.4-1.37,.86-1.62,2.49-1.35,5-2.69,7.63-3.75,1.49-.6,2.33,.49,2.65,1.95,.23,1.04,.24,2.3,.85,3.06,2.99,3.71,3.57,8.41,5.35,12.61,1.64,3.88,2.74,7.99,4.39,11.86,.65,1.53,1.9,3.34,3.32,3.89,2.35,.91,4.9,.06,6.85-1.67,1.99-1.76,3.45-4.15,2.85-6.75-.85-3.67-2.4-7.17-3.65-10.75Zm-28.56-21.57c-1.36,.71-2.76,1.32-4.63,2.2-1.05-6.02-2.86-11.28-4.62-16.48-1.81-5.37-1.82-10.92-3.16-16.46,1.81,0,2.51,1.36,3.1,2.59,1.72,3.61,3.25,7.31,4.95,10.93,.53,1.13,1.35,2.13,2.04,3.18,.32,.49,.95,.97,.94,1.44-.06,3.12,1.76,5.5,2.99,8.13,1.1,2.34,.67,3.27-1.62,4.46ZM188.77,70.19c-.66,2.06,.06,3.81,.65,5.68,.67,2.13,1.23,4.31,1.71,6.49,.53,2.44,.65,4.99,1.4,7.35,1.49,4.7,3.23,9.33,4.97,13.94,1.79,4.73,3.7,9.41,5.58,14.1,1.95,4.86,3.9,9.72,5.9,14.55,.8,1.94,1.61,3.9,2.71,5.67,.38,.62,1.79,1.11,2.47,.88,.55-.19,.96-1.51,1.02-2.36,.42-6.75-2.62-12.86-3.69-19.34-.46-2.78-1.15-5.52-1.72-8.28-.17-.84-.24-1.7-.5-2.51-.49-1.55-1.07-3.06-1.79-5.09,2.91-1.26,5.26-2.4,7.7-3.3,2.9-1.08,3.58-.6,4.5,2.41,.56,1.86,1.18,3.73,2.03,5.46,.71,1.44,1.87,2.65,2.69,4.05,1.31,2.26,2.52,4.58,3.72,6.9,.34,.67,.52,1.43,.73,2.16,.33,1.1,.63,2.22,.94,3.33,.39,1.39,.94,2.76,1.13,4.18,.35,2.5,1.9,4.08,4.38,4.26,3.18,.24,5.07-1.91,6.91-3.87,1.68-1.8,2.3-6.41,1.2-7.56-2.23-2.33-2.57-6.01-5.61-7.73-.16-.09-.35-.32-.34-.46,.35-2.99-2.22-4.43-3.48-6.56-1.58-2.67-3.32-5.25-4.85-7.95-1.36-2.4-2.38-4.81-2.54-7.79-.15-2.84-.61-6.07-3.66-7.91-.7-.43-.98-1.58-1.42-2.41-.4-.75-.72-1.55-1.16-2.27-2.7-4.4-5.8-8.6-8.06-13.21-2.58-5.28-5.88-9.76-10.23-13.69-2.13-1.93-4.17-2.68-6.58-1.66-2.26,.96-4.27,2.49-6.39,3.77-.92,5.17-2.52,10.3-.46,15.59,.37,.95,.43,2.22,.12,3.18Zm9.99-9.31c2.29,3.63,4.63,7.23,6.87,10.89,1.61,2.64,3.76,5.22,4.42,8.11,.65,2.88,4.33,4.57,2.83,8.19-2.58,1.13-5.08,2.23-7.83,3.44-.56-2.98-1.07-5.8-1.64-8.62-.13-.66-.27-1.46-.71-1.88-2.62-2.56-2.51-5.84-2.72-9.1-.1-1.52-.61-3.02-.92-4.53-.42-2.03-.83-4.07-1.24-6.11,.31-.13,.63-.26,.94-.39Zm62.16,732.28c-1.94-.75-4.03,.25-4.92,2.48-1.33,3.34-2.5,6.75-3.63,10.16-1.05,3.14-1.66,6.47-3.02,9.46-2.15,4.72-4.65,9.26-6.25,14.24-1.24,3.88-4.01,7.22-4.05,11.55,0,.44-.43,.87-.62,1.32-1.63,3.83-3.25,7.67-4.86,11.51-.11,.27-.1,.59-.22,.86-.62,1.42-1.2,2.87-1.92,4.24-1.28,2.43-3.35,4.68-3.8,7.24-.53,2.96-2.35,3.76-4.89,5.05-1.72-2.2-3.44-4.42-5.18-6.62-1.3-1.65-.86-3.21-.35-5.14,1.06-4.03,3.39-7.68,3.16-12.15-.1-2,.74-4.49,2.03-6.03,3.6-4.3,3.72-10.01,6.52-14.61,1.47-2.42,2.23-5.29,3.23-7.99,.26-.71,.57-1.62,.34-2.25-.75-2.08,.18-3.64,1.26-5.2,2.23-3.23,4.62-6.38,3.26-10.75-.23-.74,.27-1.7,.37-2.56,.34-2.85,.66-5.7,1.01-8.72-2.83,.18-5.43,.76-6.39,2.75-2.21,4.55-6.86,7.12-8.71,12.06-1.55,4.14-3.75,8.01-4.59,12.45-.55,2.89-1.28,5.78-2.3,8.53-2.7,7.28-5.62,14.48-8.42,21.73-1.32,3.43-2.58,6.89-3.81,10.35-1.33,3.75-2.64,7.57,.17,11.23,2.26,2.94,4.16,6.53,7.11,8.47,3.21,2.11,7.39,3.13,11.28,3.76,4.58,.73,8.49-.85,10.24-5.77,.61-1.71,1.07-3.59,2.12-5.02,2.75-3.75,5.22-7.75,6.13-12.22,1-4.89,2.29-9.75,4.64-13.96,2.02-3.62,2.87-7.41,4.07-11.19,.27-.84,.65-1.64,.98-2.45,1.64-3.97,3.34-7.92,4.92-11.92,1.42-3.61,2.77-7.25,4.05-10.92,1.09-3.13,2.2-6.28,2.97-9.5,.41-1.72,.11-3.67-1.94-4.47Zm-54.23,29.81c.89-4.92,1.68-9.86,2.52-14.78,1.17-6.89,3.07-13.75,.81-20.78-.74-2.31-.83-5.01-2.12-6.92-1.56-2.3-1.1-3.8,.31-5.67,1.27-1.69,1.08-3.5-.73-4.59-1.87-1.13-3.99-1.83-5.37-2.44-3.62,.49-6.44,.79-9.21,1.33-.39,.08-.72,1.33-.77,2.06-.07,.91,.53,1.99,.23,2.75-1.25,3.07-2.77,6.03-4.11,9.07-.91,2.06-1.61,4.21-2.54,6.25-1.53,3.39-2.66,7.13-4.9,9.98-2.49,3.18-2.59,7.04-4.33,10.34-1.53,2.89-.97,6.51-3.45,9.18-1.56,1.67-2.64,3.83-3.73,5.89-1.42,2.67-2.39,5.6-3.98,8.15-3.53,5.67-6.86,11.32-7.91,18.11-.71,4.62,.77,6.43,5.48,6.03,1.01-.09,2.16,.43,3.11,.93,1.8,.94,3.41,2.74,5.27,2.99,5.11,.7,10.32,2.02,15.45,.53,3.22-.93,6.65-2,8.14-5.63,1.41-3.42,2.88-6.81,4.21-10.25,2.12-5.49,4.22-10.99,6.19-16.53,.68-1.92,1.06-3.96,1.42-5.98Zm-2.94-15.07c-.32,2.02-.83,4.01-1.29,6.01-1.29,5.59-2.11,11.27-4.96,16.44-1.23,2.23-1.33,5.06-2.35,7.45-1.98,4.67-4.22,9.23-6.4,13.8-.26,.54-.82,1.23-1.33,1.32-5.89,.97-11.79,1.43-18.26-.9,1.08-1.7,2-3.03,2.81-4.43,2.23-3.86,4.43-7.73,6.61-11.62,1.86-3.33,3.66-6.69,5.49-10.03,.28-.51,.76-1.02,.77-1.55,.13-3.9,2.45-7.18,3.16-10.74,.73-3.66,2.21-7.05,2.88-10.66,.8-4.28,3.23-7.45,6.05-10.54,1.35-1.48,2.35-3.3,3.32-5.07,.85-1.55,1.54-3.14,3.8-3.55,.92,4.89,2.55,9.5,1.06,14.58-.89,3.04-.86,6.33-1.36,9.5ZM262.22,63.09c.96,4.22,2.29,8.02,5.4,11.26,2.7,2.81,5.5,3.35,8.95,1.94,1.72-.7,3,.03,3.7,1.74,.58,1.42,1.43,2.73,2.07,4.13,.43,.94,.97,1.94,.99,2.92,.07,4.03,.14,8.02,1.58,11.89,.99,2.66,.63,5.35-.45,7.95-5.59-1.97-6.89-3.65-7.3-9.29-.16-2.11-1.34-3.19-3.31-2.59-2.5,.76-5.65,1.42-6.32,4.17-.74,3-.36,6.3-.31,9.46,0,.57,.76,1.11,1.1,1.71,.34,.59,.92,1.29,.81,1.82-.38,1.88,1,2.46,2.13,3.12,2.57,1.51,5.2,2.92,7.85,4.28,.74,.38,1.64,.59,2.47,.6,5.5,.07,9.97-2.47,13.14-6.58,3.22-4.17,5.02-9.07,2.55-14.49-.28-.61-.56-1.36-.45-1.97,.92-4.97-1.39-9.14-3.47-13.24-.86-1.71-1.85-3.11-1.58-5.14,.11-.78-.08-2.05-.6-2.4-2.39-1.6-4.45-3.93-7.76-3.75-2.45,.14-4.91,.11-7.36,0-.77-.04-1.83-.4-2.2-.98-.92-1.45-1.95-3.06-2.16-4.7-.5-3.87-.56-7.79-.79-11.69-.11-1.85,.08-3.79-.4-5.54-1.17-4.22-.83-8.32,.54-12.35,.22-.64,1.83-1.4,2.48-1.18,3.01,1.02,5.63,2.89,6.92,5.83,1.37,3.12,2.17,6.48,3.25,9.73,.84,2.54,1.87,2.78,3.68,.88,1.95-2.03,1.96-4.82,2.27-7.26,.48-3.67,.22-7.44,.12-11.17-.08-3.06-1.42-5.52-4.43-6.55-1.81-.62-3.76-1.07-5.66-1.1-3.41-.06-7.28-.72-10.15,.62-5.06,2.35-10.21,4.87-11.66,11.71-1.28,6.07-.32,11.59,1.21,17.21,.83,3.07,2.45,5.94,3.16,9.04Zm64.3,335.61c-1.48,.93-1.37,2.35-.85,3.67,1.66,4.24,3.28,8.5,5.21,12.62,.97,2.09,2.44,3.99,3.93,5.78,.9,1.09,2.23,1.83,3.42,2.66,1.25,.87,2.63,1.57,3.83,2.51,3.1,2.44,6.12,4.99,9.2,7.46,.36,.29,.91,.34,1.36,.53,1.43,.59,2.99,.99,4.27,1.82,2.76,1.79,5.74,2.47,9.01,2.71,2.49-.44,4.97-1.24,7.46-1.24,2.9,0,5.4-.77,7.66-2.41,2.68-1.95,5.53-3.77,7.84-6.11,3.67-3.72,8.85-5.79,11.34-10.83,1.89-3.82,4.24-7.42,6.32-11.15,1.59-2.86-.17-5.02-1.61-7.27-1.6-2.51-4.15-2.03-6.52-2.41-1.7-.28-2.59,.17-3.66,1.45-1.8,2.16-3.78,4.25-5.97,6-3.26,2.61-6.75,4.91-10.18,7.31-.69,.49-1.48,.91-2.28,1.16-3.98,1.24-7.9,2.98-12.25,1.66-.31-.1-.74,.28-1.12,.28-3.43,.05-7.09,.82-10.23-.12-3.38-1.01-6.29-3.61-9.37-5.58-1.23-.78-2.33-1.76-3.53-2.59-3.41-2.36-6.9-4.62-10.24-7.07-.99-.73-1.7-1.7-3.03-.86ZM459.6,68.38c-.61,1.95-1.25,3.9-1.89,5.85-1.02,3.12-2.23,6.19-3.03,9.36-1.11,4.42-1.98,8.9-2.84,13.38-.71,3.69-1.36,7.38-.86,11.19,.29,2.24,1.51,3.52,3.5,4.27,.81,.31,1.66,.53,2.41,.95,3.69,2.05,7.54,3.89,10.96,6.33,3.51,2.5,6.95,2.45,10.77,1.32,3.59-1.07,4.65-4.46,2.04-7.01-.6-.58-1.38-1.1-2.17-1.33-1.85-.55-3.77-.83-5.62-1.36-2.75-.79-5.46-1.69-8.61-2.68-.92-2.07,.58-4.44,.72-6.9,.36-6.11,1.28-11.98,4.06-17.56,1.5-3.01,1.17-3.21,4.47-2.98,.95,.07,1.9,.38,2.82,.67,3.93,1.25,7.77,2.23,11.95,.55,1.79-.72,2.84-1.81,2.77-3.28-.06-1.23-1.04-2.82-2.1-3.49-1.57-1.01-3.69-1.13-5.36-2.02-3.46-1.84-7.04-2.41-10.36-1.6,1.96-9.39,3.91-18.77,6.02-28.89,3.78,3.42,7.85,3.61,12.04,3.39,2.04-.11,3.26-1.31,3.99-3.02,.68-1.6,.24-3.01-1.02-4.27-1.67-1.67-3.21-3.37-5.81-3.64-1.22-.13-2.37-.87-3.58-1.26-4.77-1.54-9.41-2.02-14.19,.38-2.72,1.36-4.28,3.72-4.47,6.06-.4,4.78-2.41,9.14-2.63,14.02-.21,4.58-2.55,9.07-3.96,13.59Zm.88,765.3c-.04-1.6-.13-3.2-.17-4.8-.15-6.04-.26-12.08-.46-18.12-.02-.59-.41-1.41-.88-1.68-1.74-1.02-4.8,.49-5.16,2.55-.32,1.83-.52,3.7-.59,5.55-.27,6.89-.44,13.79-.71,20.68-.18,4.79-.51,9.58-.68,14.37-.21,5.55-.31,11.11-.5,16.66-.02,.49-.38,.97-.58,1.45-.39-.15-.7-.18-.73-.3-1.46-4.82-4.18-9.28-3.96-14.6,.06-1.48-.67-3-1.11-4.49-.61-2.06-1.75-4.09-1.82-6.16-.18-4.99-1.72-9.59-3.21-14.24-1.06-3.31-2.36-6.58-2.99-9.98-.67-3.58-3.54-6.52-7.18-6.45-4.45,.08-7.89,5.76-6.38,10.5,.99,3.1,1.74,6.29,2.95,9.3,1.45,3.6,3.27,7.04,4.92,10.55,1.61,3.4,4.07,6.46,3.93,10.55-.04,1.13,.31,2.38,.81,3.41,2.1,4.37,4.35,8.66,6.48,13.01,2.49,5.09,4.87,10.24,7.35,15.33,1.24,2.54,2.58,5.03,3.93,7.52,.74,1.36,1.95,1.92,3.48,1.52,1.85-.48,1.62-2.01,1.54-3.37-.3-5.3-.62-10.6,1.83-15.58,.17-.34,.19-.76,.24-1.14,.59-4.13-.08-8.26,.5-12.48,.75-5.45-.32-11.14-.53-16.73-.16-4.28-.21-8.56-.32-12.84ZM589.1,63.69c-4.26-2.67-8.05-6.31-13.37-6.91-2.87-.32-5.76-.82-8.61-.66-1.09,.06-2.81,1.66-2.97,2.74-.37,2.52-2.09,4-3.34,5.85-1.4,2.08-3.16,3.98-4.24,6.21-1.24,2.57-3.82,4.56-3.56,7.8-3.43,3.49-3.46,8.58-5.9,12.56-.73,1.2-1.28,2.8-1.17,4.17,.2,2.56-.72,4.54-2.13,6.5-.62,.86-1.08,1.87-1.45,2.87-1.77,4.7-3.14,9.57-5.32,14.07-1.72,3.57-3.61,7.04-4.8,10.83-1.01,3.22-2.05,6.43-2.91,9.69-.16,.61,.31,1.54,.75,2.11,1.84,2.38,3.57,4.89,5.75,6.92,1.42,1.32,3.65,1.7,5.31,2.81,3.93,2.63,8.21,2.67,12.61,2.2,2.88-5.55,2.89-6.08-2.52-8.65-4.01-1.91-8.29-3.27-12.52-4.69-2.41-.81-2.28-.56-1.33-3.08,1.36-3.63,2.32-7.4,3.62-11.06,.57-1.62,1.55-3.1,2.33-4.64,.87-1.7,1.81-3.36,2.58-5.11,1.19-2.67,2.17-5.44,3.41-8.09,.67-1.43,1.7-2.69,2.72-4.26,1.15,.9,2.56,1.78,3.71,2.94,2.94,2.98,6.32,4.33,10.56,3.84,1.99-.23,3.74-.55,4.65-2.42,.88-1.8,.14-4.33-1.8-5.73-3.67-2.65-7.48-5.11-11.61-7.91,1.03-1.32,2.38-3.02,3.69-4.75,.55-.72,1.16-1.45,1.5-2.27,1.22-2.94,2.08-6.07,3.57-8.86,1.88-3.53,3.75-6.98,4.1-11.05,.19-2.25,2.25-3.28,3.8-1.65,3.5,3.68,8.05,3.62,12.5,3.96,1.01,.08,2.19-.27,3.08-.78,2.04-1.18,1.74-3.99-.7-5.51Zm-190.34,41.69c1.84-.22,3.73-.06,5.6-.07,5.49-.01,9.21-2.58,11.23-7.77-1.39-2.64-3.84-3.07-6.47-3.04-1.18,.01-2.35,.23-3.53,.28-2.76,.12-4.56-1.9-4.23-4.63,.45-3.7,.96-7.4,1.26-11.11,.12-1.53-.43-3.1-.35-4.64,.15-2.6,.56-5.19,.88-7.79,.32-2.6,.63-5.21,.97-7.81,.38-2.88,.92-5.74,1.17-8.62,.46-5.34,.7-10.71,1.18-16.05,.16-1.8,.8-3.56,1.25-5.45,1.21,.46,2.38,.7,3.33,1.3,3.4,2.12,8.08-.13,10.08-2.84,1.71-2.31,1.48-4.96-.96-6.32-4.73-2.62-9.45-4.95-15.26-2.87-4.95,1.77-9.95,2.98-10.58,9.5-.31,3.18-1.19,6.31-1.49,9.49-.39,3.98,.29,8.22-.82,11.95-1.96,6.58-1.56,13.33-2.38,19.96-.59,4.75-.2,9.73-.6,14.48-.38,4.42-.45,8.74-.21,13.13,.25,4.62,4.64,9.54,9.94,8.92Zm-91.41,703.17c-.72-1.6-1.41-3.11-.95-5.07,.18-.77-1.06-2.51-1.94-2.75-1.72-.47-3.8-.67-5.45-.14-6.88,2.24-12.22,6.64-16.18,12.68-.96,1.47-2.15,2.9-2.65,4.52-1.16,3.73-3.22,7.35-2.04,11.53,.12,.43,.05,1.03-.15,1.43-1.38,2.71-2.04,5.59-2.64,8.57-1.31,6.5-3.18,12.89-4.29,19.42-.57,3.37,.07,6.9-.23,10.41-.35,4.06,.34,8.19,.29,12.29-.04,3.53,1.59,6.01,4.29,7.85,5.05,3.43,10.26,6.48,16.81,4.73,.93-.25,1.97-.04,2.94-.19,.96-.15,1.98-.31,2.81-.76,2.55-1.39,2.57-4.24-.04-5.51-1.52-.74-3.28-.98-4.93-1.44-5.76,.8-10.14-3.89-9.6-9.61,.63-6.58,1.73-13.18,1.62-19.76-.12-7.83,2.5-15,4.18-22.38,.76-3.36,2.58-6.41,2.87-10.1,.28-3.55,1.7-7.03,2.9-10.45,.29-.85,1.58-1.74,2.52-1.88,1.51-.22,3.11,.18,4.67,.3,1.07,.08,2.17,.31,3.21,.16,2.61-.39,3.08-1.43,1.99-3.86ZM166.8,161.83c1.91-1.63,3.67,.39,5.45,.14,.9-.12,1.81-.57,2.59-1.07,.73-.47,1.23-1.3,1.96-1.78,4.7-3.11,9.53-6.02,14.11-9.29,2.21-1.58,4.1-3.67,5.92-5.72,1.45-1.65,.33-5.38-1.3-4.92-2.87,.8-6.01,.32-8.68,2.3-3.18,2.36-6.64,4.38-10.13,6.28-2.94,1.61-4.11,.98-5.43-2.03-1.83-4.16-3.77-8.28-5.68-12.4-.25-.53-.55-1.14-1-1.44-2.18-1.43-2.69-3.73-3.39-5.99-.37-1.19-.95-2.35-1.6-3.42-2.1-3.49-4.33-6.91-6.42-10.41-1.73-2.89-3.17-5.96-5.02-8.77-1.81-2.74-4.36-5.05-5.9-7.91-2.13-3.98-5.3-6.96-8.4-10-.88-.86-2.92-1.04-4.26-.75-.81,.18-1.29,1.86-1.96,2.93,1.54,3.77,2.83,7.3,4.42,10.7,1.56,3.34,3.29,6.61,5.17,9.79,2.98,5.05,4.81,10.67,8.25,15.53,2.43,3.43,3.89,7.54,5.86,11.31,1.54,2.93,3.01,5.91,4.84,8.65,3.46,5.17,6.95,10.29,8.76,16.34,.24,.79,1.79,1.97,1.84,1.93ZM510.64,875.72c-2.71,.72-5.29,1.94-7.9,3.02-1.6,.66-3.15,1.44-5.05,2.32-.39-1.58-.8-2.78-.97-4.01-.79-5.72-3.92-10.9-3.91-16.81,0-.55-.45-1.08-.63-1.64-.81-2.41-1.8-4.79-2.34-7.26-.97-4.35-.2-5.08,4.2-4.89,2.58,.11,4.78-1.01,6.52-2.81,1.37-1.42,.96-3.09-.86-3.3-3.66-.43-7.37-.82-11.03-.6-2.06,.12-3.12-.46-3.5-2.14-1.51-6.76-2.86-13.55-4.29-20.33-.42-2.01-.64-4.12-1.39-6.01-1.55-3.88-.83-5.5,3.25-6.25,2.71-.5,5.44-.85,8.13-1.43,.66-.14,1.68-.97,1.66-1.45-.03-.97-.57-2.67-1.07-2.74-2.82-.38-5.58-1.77-8.58-.36-2.36,1.11-4.9,1.96-7.45,2.51-2.83,.61-8.58,2-6.65,7.33,.82,2.79,1.59,5.16,2.21,7.57,1.45,5.68,2.73,11.4,4.26,17.06,1.55,5.74,3.38,11.4,4.93,17.14,.83,3.07,1.22,6.26,2.04,9.34,1.67,6.24,3.51,12.43,5.24,18.65,.68,2.44,.87,5.1,1.98,7.31,1.13,2.26,3,4.2,4.8,6.02,.4,.4,1.93-.19,2.88-.5,1.44-.48,2.79-1.32,4.25-1.66,5.69-1.33,10.58-3.71,12.88-9.51,.41-1.03,.55-2.77-.03-3.42-.74-.82-2.49-1.42-3.55-1.14Zm-166.77-477.2c3.01,1.75,6.02,4.14,9.29,4.67,4.98,.81,10.33,1.02,15.26,.09,4.83-.9,9.39-3.42,13.96-5.46,2.03-.91,3.9-2.28,5.65-3.67,1.48-1.18,2.88-2.56,3.94-4.11,1.15-1.67-.02-5.02-1.93-5.24-3.21-.36-5-2.45-6.87-4.56-.87-.99-1.68-1.23-2.77-.37-6.31,4.9-13.48,4.74-20.53,2.71-5.44-1.57-10.56-4.22-16.33-6.6-.62,1.09-1.79,2.29-1.96,3.6-.41,3.29-2.66,5.39-4.49,7.72-2.04,2.62-2.19,4.66,.35,6.79,1.99,1.66,4.18,3.13,6.42,4.44Zm76.1,459.9c-.05-1.46,.36-2.96,.17-4.39-.43-3.26-1.32-6.47-1.62-9.74-.49-5.32-.66-10.67-.97-16.01-.02-.39-.16-.78-.18-1.17-.17-3.25-.14-6.42-3.12-8.87-1.3-1.07-1.65-3.28-2.53-4.92-.28-.53-.88-.89-1.34-1.32-.37,.41-.87,.76-1.09,1.23-.95,2.05-1.61,4.25-2.74,6.18-3.06,5.24-2.68,11.04-2.35,16.6,.23,3.86,.4,7.81,1.32,11.72,.71,2.99,0,6.23,.93,9.49,1.06,3.69,.75,7.78,1.03,11.7-.22,.09-.44,.18-.67,.27,.89,1.97,2,3.87,2.62,5.92,1.51,5.02,4.43,9.64,4.3,15.15-.03,1.25,.29,2.55,.64,3.76,.55,1.89,2.54,2.69,3.87,1.36,1.26-1.26,2.43-2.9,2.94-4.59,1.72-5.65-.27-11.26-.55-16.9-.26-5.16-.49-10.32-.67-15.48Zm9.92-755.37c1.17,.95,2.82,1.52,4.19,.12,1.05-1.08,2.18-2.2,2.85-3.52,2.13-4.25,4.71-8.39,4.22-13.48-.03-.33,.32-.69,.43-1.06,.89-2.96,1.84-5.9,2.6-8.89,.47-1.86,.62-3.8,.98-5.69,.14-.73,.49-1.43,.76-2.14,.46-1.23,1.07-2.41,1.39-3.68,.65-2.58,2.56-4.83,1.45-7.89-.46-1.27,.54-3,.55-4.52,.08-6.05,.03-12.1,.03-18.16,.07,0,.15,0,.22,0,0-.98,.06-1.96-.01-2.94-.13-1.61-1.04-2.52-2.68-2.53-1.6-.01-2.5,.83-2.8,2.42-.33,1.78-.72,3.54-1.12,5.3-.55,2.4-1.04,4.81-1.71,7.17-1.5,5.3-3.15,10.55-4.64,15.85-1.03,3.65-1.9,7.34-2.84,11.01-1.68,6.55-4.27,12.95-3.37,19.94,.07,.57-.08,1.17-.18,1.74-.48,2.65-1.11,5.28-1.39,7.94-.1,.98,.35,2.41,1.06,2.99Zm262.34,145c2.35,.18,4.74,.24,7.07-.03,1.86-.22,3.74-1.12,4.03-3.26,.31-2.24,1.61-4.75-1.32-6.53-.8-.49-1.27-1.85-1.5-2.9-.35-1.57-1.21-2.05-2.68-2.1-2.18-.08-2.86,1.29-3.09,3.21-3.37-.13-4.71,2.26-5.84,4.67-1.3,2.78,.63,6.74,3.33,6.95ZM463.78,9.38c.7-.68,1.18-1.84,1.29-2.83,.31-2.64-1.72-5.56-4.53-6.04-2.87-.48-5.84-.58-8.75-.47-2.52,.1-3.52,1.55-4.03,4.42,1.09,1.99,1.77,4.47,3.38,5.87,2.63,2.28,10.14,1.48,12.65-.95Zm302.74,513.13c-5.05,1.23-8.92,4.38-12.13,8.24-.67,.81-.49,2.86,.04,3.99,.63,1.35,1.93,2.41,3.87,1.44,3.69-1.84,7.58-3.33,11.14-5.38,1.28-.74,1.87-2.7,2.77-4.1-.48-2.91-2.99-4.86-5.69-4.2ZM84.51,654.07c.53,.25,1.56,.95,2.7,1.2,1.16,.26,2.5,.32,3.61-.03,.41-.13,.36-1.68,.54-2.58,.23-1.19,.53-2.36,.72-3.56,.28-1.76,1.31-3.5-.31-5.24-1.59-1.72-3.36-1.86-5.32-1.01-1.86,.81-3.74,1.62-5.47,2.68-1.65,1-2.1,3.48-1.01,5.88,.68,1.5,1.37,3.45,4.54,2.67Zm10.37-35.38c1.31-1.49,2.36-3.23,1.05-5.6-1.13-2.04-2.65-2.94-4.72-2.65-3.35,.47-6.43,1.85-8.45,4.64-.63,.88-.72,2.8-.18,3.73,1.15,2.01,3.27,2.97,5.84,3.27,2.37-.5,4.77-1.47,6.46-3.4Zm317.94,176.09c1.09-.77,1.72-2.83,1.75-4.32,.04-1.98-1.7-2.94-3.53-3.42-2.84-.74-9.29,3.26-9.86,6.11-.49,2.45,1.45,4.84,4.11,5.3,2.54-1.18,5.28-2.08,7.53-3.67ZM56.9,695.55c-2.21,.88-4.31,2.11-6.32,3.41-1.78,1.15-2.46,3.09-1.26,4.84,.82,1.2,2.49,1.81,3.77,2.68,3.27-1.38,6.29-2.16,7.94-5.22,.67-1.24,1.42-2.35,.35-3.75-1.15-1.51-2.6-2.7-4.48-1.95ZM659.49,274.49c1.32-.07,2.58-.29,2.92-1.89,.31-1.47-.14-2.43-1.69-2.85-.52-.14-.89-.82-1.41-1.02-2.4-.95-4.78-2.05-7.28-2.59-.88-.19-2.39,.84-3.03,1.73-.63,.88-.1,2.01,1.18,2.54,.35,.15,.46,.98,.6,1.52,.43,1.62,1.46,2.48,3.14,2.52,.97,.02,1.95,0,2.92,0,0,.01,0,.03,0,.04,.88,0,1.76,.04,2.64,0Zm17.6-87.31c.38-.76,.81-1.47,1.1-2.24,.44-1.17,.54-2.56,1.25-3.52,.91-1.25,.89-2.23,.18-3.47-1.37-2.4-1.8-4.87-.58-7.55,.37-.8,.15-1.87,.23-3.35-2.75,1.81-3.97,4.37-4.21,7.49-.12,1.52-.44,3.04-.87,4.5-.65,2.19,.8,6.84,2.91,8.14Zm34.83,288.21c1.08,1.19,2.12,2.42,3.32,3.8,2.21-2.03,2.41-3.53,1.12-5.39-1.43-2.05-2.77-4.17-4.32-6.13-.76-.95-1.81-1.76-2.89-2.33-1.38-.72-2.89,.16-2.52,1.56,.53,1.99,1.57,3.88,2.63,5.66,.65,1.09,1.79,1.87,2.66,2.83ZM6.62,603.33c-.86,3.23,.91,7.22,3.71,8.34,1.49,.6,3.81-.63,3.92-2.07,.35-4.77-2.7-7.27-7.62-6.27Zm77.62-84.95c.46-.32,.77-1.49,.55-2.02-.68-1.59-1.54-3.14-2.56-4.54-.4-.54-1.79-1.09-2.08-.84-1.13,.94-2,2.19-2.56,2.84-.02,2.67,1.9,5.31,3.75,5.51,.94,.1,2.09-.38,2.9-.95ZM660.99,221.17c.24,.67,1.09,1.12,1.67,1.67,.64-.67,1.35-1.29,1.87-2.04,.23-.33,.04-.95,.04-1.44,.11-.03,.22-.07,.33-.1-.93-2.41-1.76-4.86-2.87-7.18-.22-.46-1.6-.66-2.32-.48-.52,.13-1.29,1.2-1.17,1.65,.68,2.68,1.51,5.33,2.46,7.92Z"/>
    </g>
  </g>
</svg>